<svg t="1631865471614" class="icon" viewBox="0 0 1024 1024" version="1.1" xmlns="http://www.w3.org/2000/svg" p-id="2426" width="128" height="128"><path d="M512 512m-276.983607 0a276.983607 276.983607 0 1 0 553.967214 0 276.983607 276.983607 0 1 0-553.967214 0Z" fill="#e6e6e6" p-id="2427"></path><path d="M512 1024C229.851198 1024 0 794.148802 0 512S229.851198 0 512 0s512 229.851198 512 512-229.851198 512-512 512z m0-968.474149c-251.803279 0-456.474149 204.67087-456.474149 456.474149S260.196721 968.474149 512 968.474149 968.474149 763.803279 968.474149 512 763.803279 55.525851 512 55.525851z" fill="#e6e6e6" p-id="2428"></path></svg>